<svg xmlns="http://www.w3.org/2000/svg" viewBox="0 0 128 128" role="img" aria-label="Codex Best Practice favicon">
  <defs>
    <linearGradient id="g" x1="12%" x2="88%" y1="12%" y2="88%">
      <stop offset="0%" stop-color="#ea6b2d" />
      <stop offset="100%" stop-color="#ef9655" />
    </linearGradient>
  </defs>
  <rect width="128" height="128" rx="28" fill="#13233b" />
  <circle cx="64" cy="64" r="38" fill="url(#g)" />
  <path
    d="M81 45.6c-5.1-5.6-10.8-8.4-17.5-8.4-15.1 0-26.7 11.5-26.7 26.8S48.4 90.7 63.6 90.7c7 0 13-2.7 18-8.2l-8.4-8.2c-2.7 2.9-5.7 4.4-9.1 4.4-7 0-12.2-5.7-12.2-14.5 0-8.5 5.2-14 12.4-14 3.4 0 6.3 1.5 8.8 4.6L81 45.6z"
    fill="#13233b"
  />
</svg>
